<mxfile host="app.diagrams.net" modified="2022-09-04T02:11:00.097Z" agent="5.0 (Windows NT 10.0; Win64; x64) AppleWebKit/537.36 (KHTML, like Gecko) Chrome/105.0.0.0 Safari/537.36" etag="r52hpJMdXg6y40eP4TnM" version="20.2.8" type="github">
  <diagram id="C5RBs43oDa-KdzZeNtuy" name="Page-1">
    <mxGraphModel dx="1460" dy="794" grid="1" gridSize="10" guides="1" tooltips="1" connect="1" arrows="1" fold="1" page="1" pageScale="1" pageWidth="827" pageHeight="1169" math="0" shadow="0">
      <root>
        <mxCell id="WIyWlLk6GJQsqaUBKTNV-0" />
        <mxCell id="WIyWlLk6GJQsqaUBKTNV-1" parent="WIyWlLk6GJQsqaUBKTNV-0" />
        <mxCell id="XXgY5dmGq-Qkfo8DTNXR-0" value="Objetos" style="rounded=0;whiteSpace=wrap;html=1;" vertex="1" parent="WIyWlLk6GJQsqaUBKTNV-1">
          <mxGeometry x="80" y="680" width="140" height="20" as="geometry" />
        </mxCell>
        <mxCell id="XXgY5dmGq-Qkfo8DTNXR-1" value="Baya" style="rounded=0;whiteSpace=wrap;html=1;" vertex="1" parent="WIyWlLk6GJQsqaUBKTNV-1">
          <mxGeometry x="40" y="200" width="130" height="20" as="geometry" />
        </mxCell>
        <mxCell id="XXgY5dmGq-Qkfo8DTNXR-2" value="Poción" style="rounded=0;whiteSpace=wrap;html=1;" vertex="1" parent="WIyWlLk6GJQsqaUBKTNV-1">
          <mxGeometry x="200" y="240" width="130" height="20" as="geometry" />
        </mxCell>
        <mxCell id="XXgY5dmGq-Qkfo8DTNXR-3" value="Caramelo" style="rounded=0;whiteSpace=wrap;html=1;" vertex="1" parent="WIyWlLk6GJQsqaUBKTNV-1">
          <mxGeometry x="120" y="360" width="130" height="20" as="geometry" />
        </mxCell>
        <mxCell id="XXgY5dmGq-Qkfo8DTNXR-4" value="Pogramon" style="rounded=0;whiteSpace=wrap;html=1;" vertex="1" parent="WIyWlLk6GJQsqaUBKTNV-1">
          <mxGeometry x="440" y="40" width="140" height="20" as="geometry" />
        </mxCell>
        <mxCell id="XXgY5dmGq-Qkfo8DTNXR-5" value="Fuego" style="rounded=0;whiteSpace=wrap;html=1;" vertex="1" parent="WIyWlLk6GJQsqaUBKTNV-1">
          <mxGeometry x="640" y="40" width="120" height="20" as="geometry" />
        </mxCell>
        <mxCell id="XXgY5dmGq-Qkfo8DTNXR-22" style="edgeStyle=orthogonalEdgeStyle;rounded=0;orthogonalLoop=1;jettySize=auto;html=1;exitX=0;exitY=0.5;exitDx=0;exitDy=0;endArrow=block;endFill=0;" edge="1" parent="WIyWlLk6GJQsqaUBKTNV-1" source="XXgY5dmGq-Qkfo8DTNXR-6">
          <mxGeometry relative="1" as="geometry">
            <mxPoint x="580" y="130" as="targetPoint" />
            <Array as="points">
              <mxPoint x="640" y="140" />
              <mxPoint x="610" y="140" />
              <mxPoint x="610" y="130" />
            </Array>
          </mxGeometry>
        </mxCell>
        <mxCell id="XXgY5dmGq-Qkfo8DTNXR-6" value="Agua" style="rounded=0;whiteSpace=wrap;html=1;" vertex="1" parent="WIyWlLk6GJQsqaUBKTNV-1">
          <mxGeometry x="640" y="120" width="120" height="20" as="geometry" />
        </mxCell>
        <mxCell id="XXgY5dmGq-Qkfo8DTNXR-7" value="Planta" style="rounded=0;whiteSpace=wrap;html=1;" vertex="1" parent="WIyWlLk6GJQsqaUBKTNV-1">
          <mxGeometry x="640" y="200" width="120" height="20" as="geometry" />
        </mxCell>
        <mxCell id="XXgY5dmGq-Qkfo8DTNXR-8" value="Entrenador" style="rounded=0;whiteSpace=wrap;html=1;" vertex="1" parent="WIyWlLk6GJQsqaUBKTNV-1">
          <mxGeometry x="400" y="280" width="130" height="20" as="geometry" />
        </mxCell>
        <mxCell id="XXgY5dmGq-Qkfo8DTNXR-9" value="Liga Programón" style="rounded=0;whiteSpace=wrap;html=1;" vertex="1" parent="WIyWlLk6GJQsqaUBKTNV-1">
          <mxGeometry x="80" y="520" width="160" height="20" as="geometry" />
        </mxCell>
        <mxCell id="XXgY5dmGq-Qkfo8DTNXR-10" value="+ Entrenadores: List&lt;br&gt;+ Perdedores: List&lt;br&gt;+ Ronda actual: int&lt;br&gt;+ Campeón: str" style="rounded=0;whiteSpace=wrap;html=1;align=left;" vertex="1" parent="WIyWlLk6GJQsqaUBKTNV-1">
          <mxGeometry x="80" y="540" width="160" height="60" as="geometry" />
        </mxCell>
        <mxCell id="XXgY5dmGq-Qkfo8DTNXR-11" value="+ resumen_campeonato(): None&lt;br&gt;+simular_ronda(): None" style="rounded=0;whiteSpace=wrap;html=1;align=left;" vertex="1" parent="WIyWlLk6GJQsqaUBKTNV-1">
          <mxGeometry x="80" y="600" width="160" height="60" as="geometry" />
        </mxCell>
        <mxCell id="XXgY5dmGq-Qkfo8DTNXR-14" value="+ Nombre: str&lt;br&gt;+Nivel: int&lt;br&gt;+ mega: int&lt;br&gt;+ xp: int&lt;br&gt;+ tipo: str&lt;br&gt;+ vida: int&lt;br&gt;+ ataque: int&lt;br&gt;+ defensa: int&lt;br&gt;+ speed: int" style="rounded=0;whiteSpace=wrap;html=1;align=left;" vertex="1" parent="WIyWlLk6GJQsqaUBKTNV-1">
          <mxGeometry x="440" y="60" width="140" height="140" as="geometry" />
        </mxCell>
        <mxCell id="XXgY5dmGq-Qkfo8DTNXR-15" value="+ entrenamiento(): None&lt;br&gt;+ luchar(): None" style="rounded=0;whiteSpace=wrap;html=1;align=left;" vertex="1" parent="WIyWlLk6GJQsqaUBKTNV-1">
          <mxGeometry x="440" y="200" width="140" height="60" as="geometry" />
        </mxCell>
        <mxCell id="XXgY5dmGq-Qkfo8DTNXR-21" style="edgeStyle=orthogonalEdgeStyle;rounded=0;orthogonalLoop=1;jettySize=auto;html=1;exitX=0;exitY=0;exitDx=0;exitDy=0;entryX=1;entryY=0.5;entryDx=0;entryDy=0;endArrow=block;endFill=0;" edge="1" parent="WIyWlLk6GJQsqaUBKTNV-1" source="XXgY5dmGq-Qkfo8DTNXR-16" target="XXgY5dmGq-Qkfo8DTNXR-14">
          <mxGeometry relative="1" as="geometry">
            <Array as="points">
              <mxPoint x="610" y="60" />
              <mxPoint x="610" y="130" />
            </Array>
          </mxGeometry>
        </mxCell>
        <mxCell id="XXgY5dmGq-Qkfo8DTNXR-16" value="+ ventaja_tipo: int" style="rounded=0;whiteSpace=wrap;html=1;align=left;verticalAlign=top;" vertex="1" parent="WIyWlLk6GJQsqaUBKTNV-1">
          <mxGeometry x="640" y="60" width="120" height="30" as="geometry" />
        </mxCell>
        <mxCell id="XXgY5dmGq-Qkfo8DTNXR-17" value="+ ventaja_tipo: int" style="rounded=0;whiteSpace=wrap;html=1;align=left;verticalAlign=top;" vertex="1" parent="WIyWlLk6GJQsqaUBKTNV-1">
          <mxGeometry x="640" y="140" width="120" height="30" as="geometry" />
        </mxCell>
        <mxCell id="XXgY5dmGq-Qkfo8DTNXR-23" style="edgeStyle=orthogonalEdgeStyle;rounded=0;orthogonalLoop=1;jettySize=auto;html=1;exitX=0;exitY=0;exitDx=0;exitDy=0;entryX=1;entryY=0.5;entryDx=0;entryDy=0;endArrow=block;endFill=0;" edge="1" parent="WIyWlLk6GJQsqaUBKTNV-1" source="XXgY5dmGq-Qkfo8DTNXR-18" target="XXgY5dmGq-Qkfo8DTNXR-14">
          <mxGeometry relative="1" as="geometry">
            <Array as="points">
              <mxPoint x="610" y="220" />
              <mxPoint x="610" y="130" />
            </Array>
          </mxGeometry>
        </mxCell>
        <mxCell id="XXgY5dmGq-Qkfo8DTNXR-18" value="+ ventaja_tipo: int" style="rounded=0;whiteSpace=wrap;html=1;align=left;verticalAlign=top;" vertex="1" parent="WIyWlLk6GJQsqaUBKTNV-1">
          <mxGeometry x="640" y="220" width="120" height="30" as="geometry" />
        </mxCell>
        <mxCell id="XXgY5dmGq-Qkfo8DTNXR-26" value="+ Nombre: str&lt;br&gt;+ energía: int&lt;br&gt;+ programones: list&lt;br&gt;+ objetos: list" style="rounded=0;whiteSpace=wrap;html=1;align=left;" vertex="1" parent="WIyWlLk6GJQsqaUBKTNV-1">
          <mxGeometry x="400" y="300" width="130" height="70" as="geometry" />
        </mxCell>
        <mxCell id="XXgY5dmGq-Qkfo8DTNXR-27" value="+ estado(): None&lt;br&gt;+ crear_obj(): Objeto()" style="rounded=0;whiteSpace=wrap;html=1;align=left;" vertex="1" parent="WIyWlLk6GJQsqaUBKTNV-1">
          <mxGeometry x="400" y="370" width="130" height="60" as="geometry" />
        </mxCell>
        <mxCell id="XXgY5dmGq-Qkfo8DTNXR-28" value="+ nombre: str&lt;br&gt;+ tipo: str&lt;br&gt;+ cost: int&lt;br&gt;+ prob_exito: int" style="rounded=0;whiteSpace=wrap;html=1;align=left;" vertex="1" parent="WIyWlLk6GJQsqaUBKTNV-1">
          <mxGeometry x="80" y="700" width="140" height="60" as="geometry" />
        </mxCell>
        <mxCell id="XXgY5dmGq-Qkfo8DTNXR-29" value="+@ aplicar_obj(): None" style="rounded=0;whiteSpace=wrap;html=1;align=left;" vertex="1" parent="WIyWlLk6GJQsqaUBKTNV-1">
          <mxGeometry x="80" y="760" width="140" height="60" as="geometry" />
        </mxCell>
        <mxCell id="XXgY5dmGq-Qkfo8DTNXR-30" value="+@ aplicar_obj(): None" style="rounded=0;whiteSpace=wrap;html=1;align=left;" vertex="1" parent="WIyWlLk6GJQsqaUBKTNV-1">
          <mxGeometry x="40" y="220" width="130" height="30" as="geometry" />
        </mxCell>
        <mxCell id="XXgY5dmGq-Qkfo8DTNXR-31" value="+@ aplicar_obj(): None" style="rounded=0;whiteSpace=wrap;html=1;align=left;" vertex="1" parent="WIyWlLk6GJQsqaUBKTNV-1">
          <mxGeometry x="200" y="260" width="130" height="30" as="geometry" />
        </mxCell>
        <mxCell id="XXgY5dmGq-Qkfo8DTNXR-32" value="+@ aplicar_obj(): None" style="rounded=0;whiteSpace=wrap;html=1;align=left;" vertex="1" parent="WIyWlLk6GJQsqaUBKTNV-1">
          <mxGeometry x="120" y="380" width="130" height="30" as="geometry" />
        </mxCell>
      </root>
    </mxGraphModel>
  </diagram>
</mxfile>
